<svg width="71" height="90" viewBox="0 0 71 90" fill="none" xmlns="http://www.w3.org/2000/svg">
<path d="M20.7686 53.1729C22.9998 54.6921 25.2501 56.2608 27.5635 57.7695C33.513 61.6496 39.468 62.278 44.2588 61.9629C46.6372 61.8064 48.7425 61.417 50.3906 61.0859C51.2436 60.9146 51.9024 60.7736 52.4893 60.667C52.8628 60.5991 53.704 60.3884 54.292 60.2383C61.3976 62.5101 65.9997 66.139 66 70.2305C66 77.1128 52.9815 82.6923 36.9229 82.6924C20.8643 82.6923 7.8457 77.1127 7.8457 70.2305C7.84601 65.9102 12.9767 62.1036 20.7686 59.8682V53.1729ZM36.9229 7C52.9814 7.00005 65.9999 12.5797 66 19.4619C65.9997 23.6092 61.2716 27.2818 54 29.5469V52.9609C53.8646 52.9609 53.0948 52.9917 52.4902 53.1016C51.9033 53.2082 51.2449 53.3481 50.3916 53.5195C48.7433 53.8507 46.6377 54.2409 44.2588 54.3975C39.4679 54.7126 33.514 54.0833 27.5645 50.2031C23.3809 47.4747 19.4051 44.5504 15.3701 42.0771C13.4132 40.8777 11.5947 39.8854 9.9541 39.1982C8.2882 38.5006 6.97879 38.1914 6 38.1914V31C8.02121 31 10.1069 31.6049 12.0928 32.4365C14.1034 33.2786 16.1932 34.4325 18.2646 35.7021C19.0813 36.2027 19.9188 36.7404 20.7686 37.2959V29.8232C12.9768 27.5878 7.846 23.7821 7.8457 19.4619C7.8458 12.5797 20.8644 7.0001 36.9229 7ZM36.9229 14.3848C30.0408 14.3848 24.4611 16.038 24.4609 18.0771C24.4613 20.1162 30.041 21.7695 36.9229 21.7695C43.8048 21.7695 49.3834 20.1162 49.3838 18.0771C49.3837 16.038 43.805 14.3848 36.9229 14.3848Z" fill="white"/>
</svg>
